<svg xmlns="http://www.w3.org/2000/svg" width="420" height="600" viewBox="0 0 420 600">
  <rect width="420" height="600" rx="20" fill="#16213e"/>
  <text x="30" y="40" font-size="16" fill="#888">← 返回</text>
  <text x="260" y="40" font-size="13" fill="#888">步骤 2/4：行动记录</text>

  <!-- Table header -->
  <text x="30" y="85" text-anchor="middle" font-size="12" fill="#888">翻牌前</text>
  <text x="130" y="85" text-anchor="middle" font-size="12" fill="#16c79a">翻牌</text>
  <text x="230" y="85" text-anchor="middle" font-size="12" fill="#f0a500">转牌</text>
  <text x="330" y="85" text-anchor="middle" font-size="12" fill="#e94560">河牌</text>

  <!-- Pot row -->
  <rect x="20" y="100" width="80" height="56" rx="8" fill="#1a1a3e" stroke="#2a2a4e" stroke-width="1"/>
  <text x="60" y="120" text-anchor="middle" font-size="10" fill="#888">底池</text>
  <text x="60" y="145" text-anchor="middle" font-size="16" fill="#fff" font-weight="bold">15</text>

  <rect x="110" y="100" width="80" height="56" rx="8" fill="#1a1a3e" stroke="#16c79a" stroke-width="1"/>
  <text x="150" y="120" text-anchor="middle" font-size="10" fill="#888">底池</text>
  <text x="150" y="145" text-anchor="middle" font-size="16" fill="#fff" font-weight="bold">45</text>

  <rect x="200" y="100" width="80" height="56" rx="8" fill="#1a1a3e" stroke="#2a2a4e" stroke-width="1"/>
  <text x="240" y="120" text-anchor="middle" font-size="10" fill="#888">底池</text>
  <text x="240" y="145" text-anchor="middle" font-size="16" fill="#fff" font-weight="bold">95</text>

  <rect x="290" y="100" width="80" height="56" rx="8" fill="#1a1a3e" stroke="#e94560" stroke-width="1"/>
  <text x="330" y="120" text-anchor="middle" font-size="10" fill="#888">底池</text>
  <text x="330" y="145" text-anchor="middle" font-size="16" fill="#fff" font-weight="bold">195</text>

  <!-- Hero actions row -->
  <rect x="20" y="165" width="80" height="56" rx="8" fill="#1a1a3e" stroke="#2a2a4e" stroke-width="1"/>
  <text x="60" y="185" text-anchor="middle" font-size="10" fill="#888">你的行动</text>
  <text x="60" y="210" text-anchor="middle" font-size="13" fill="#e94560" font-weight="bold">跟注3</text>

  <rect x="110" y="165" width="80" height="56" rx="8" fill="#1a1a3e" stroke="#16c79a" stroke-width="1"/>
  <text x="150" y="185" text-anchor="middle" font-size="10" fill="#888">你的行动</text>
  <text x="150" y="210" text-anchor="middle" font-size="13" fill="#fff" font-weight="bold">下注20</text>

  <rect x="200" y="165" width="80" height="56" rx="8" fill="#1a1a3e" stroke="#2a2a4e" stroke-width="1"/>
  <text x="240" y="185" text-anchor="middle" font-size="10" fill="#888">你的行动</text>
  <text x="240" y="210" text-anchor="middle" font-size="13" fill="#f0a500" font-weight="bold">过牌</text>

  <rect x="290" y="165" width="80" height="56" rx="8" fill="#1a1a3e" stroke="#e94560" stroke-width="1"/>
  <text x="330" y="185" text-anchor="middle" font-size="10" fill="#888">你的行动</text>
  <text x="330" y="210" text-anchor="middle" font-size="13" fill="#666" font-weight="bold">弃牌</text>

  <!-- Opponent row -->
  <rect x="20" y="230" width="80" height="56" rx="8" fill="#1a1a3e" stroke="#2a2a4e" stroke-width="1"/>
  <text x="60" y="250" text-anchor="middle" font-size="10" fill="#888">对手行动</text>
  <text x="60" y="275" text-anchor="middle" font-size="13" fill="#fff" font-weight="bold">加注3</text>

  <rect x="110" y="230" width="80" height="56" rx="8" fill="#1a1a3e" stroke="#2a2a4e" stroke-width="1"/>
  <text x="150" y="250" text-anchor="middle" font-size="10" fill="#888">对手行动</text>
  <text x="150" y="275" text-anchor="middle" font-size="13" fill="#fff" font-weight="bold">跟注20</text>

  <rect x="200" y="230" width="80" height="56" rx="8" fill="#1a1a3e" stroke="#2a2a4e" stroke-width="1"/>
  <text x="240" y="250" text-anchor="middle" font-size="10" fill="#888">对手行动</text>
  <text x="240" y="275" text-anchor="middle" font-size="13" fill="#fff" font-weight="bold">下注40</text>

  <!-- Hand info -->
  <rect x="20" y="310" width="380" height="50" rx="10" fill="#1a1a3e"/>
  <text x="210" y="340" text-anchor="middle" font-size="13" fill="#e94560">A♥K♥</text>
  <text x="240" y="340" font-size="12" fill="#888">翻牌中顶对带听花</text>

  <!-- Nav buttons -->
  <rect x="30" y="530" width="100" height="44" rx="10" fill="none" stroke="#3a3a5e" stroke-width="2"/>
  <text x="80" y="558" text-anchor="middle" font-size="13" fill="#888">← 上一步</text>
  <rect x="250" y="530" width="140" height="44" rx="10" fill="#16c79a"/>
  <text x="320" y="558" text-anchor="middle" font-size="14" fill="#fff" font-weight="bold">下一步 →</text>

  <text x="210" y="590" text-anchor="middle" font-size="11" fill="#555">Page 3/6 · 行动记录</text>
</svg>
