<svg xmlns="http://www.w3.org/2000/svg" width="420" height="600" viewBox="0 0 420 600">
  <rect width="420" height="600" rx="20" fill="#16213e"/>
  <text x="30" y="40" font-size="16" fill="#888">← 返回</text>
  <text x="280" y="40" font-size="13" fill="#888">步骤 1/4：手牌信息</text>
  
  <text x="30" y="90" font-size="14" fill="#aaa">你的手牌：</text>
  <!-- Hero cards -->
  <rect x="30" y="105" width="50" height="70" rx="8" fill="none" stroke="#e94560" stroke-width="2"/>
  <text x="55" y="148" text-anchor="middle" font-size="18" fill="#e94560" font-weight="bold">A♥</text>
  <rect x="90" y="105" width="50" height="70" rx="8" fill="none" stroke="#e94560" stroke-width="2"/>
  <text x="115" y="148" text-anchor="middle" font-size="18" fill="#e94560" font-weight="bold">K♥</text>
  <rect x="150" y="105" width="50" height="70" rx="8" fill="none" stroke="#3a3a5e" stroke-dasharray="4,3"/>
  <text x="175" y="148" text-anchor="middle" font-size="20" fill="#555">+</text>
  <rect x="210" y="105" width="50" height="70" rx="8" fill="none" stroke="#3a3a5e" stroke-dasharray="4,3"/>
  <text x="235" y="148" text-anchor="middle" font-size="20" fill="#555">+</text>
  
  <text x="30" y="220" font-size="14" fill="#aaa">公牌：</text>
  <rect x="30" y="235" width="46" height="64" rx="8" fill="none" stroke="#16c79a" stroke-width="2"/>
  <text x="53" y="275" text-anchor="middle" font-size="16" fill="#e94560" font-weight="bold">K♦</text>
  <rect x="84" y="235" width="46" height="64" rx="8" fill="none" stroke="#16c79a" stroke-width="2"/>
  <text x="107" y="275" text-anchor="middle" font-size="16" fill="#333" font-weight="bold">7♠</text>
  <rect x="138" y="235" width="46" height="64" rx="8" fill="none" stroke="#16c79a" stroke-width="2"/>
  <text x="161" y="275" text-anchor="middle" font-size="16" fill="#333" font-weight="bold">2♣</text>
  <rect x="192" y="235" width="46" height="64" rx="8" fill="none" stroke="#f0a500" stroke-width="2"/>
  <text x="215" y="275" text-anchor="middle" font-size="16" fill="#e94560" font-weight="bold">9♥</text>
  <rect x="246" y="235" width="46" height="64" rx="8" fill="none" stroke="#e94560" stroke-width="2"/>
  <text x="269" y="275" text-anchor="middle" font-size="16" fill="#333" font-weight="bold">3♠</text>
  
  <text x="30" y="340" font-size="14" fill="#aaa">对手人数：</text>
  <rect x="30" y="355" width="50" height="32" rx="8" fill="none" stroke="#3a3a5e" stroke-width="1"/><text x="55" y="376" text-anchor="middle" font-size="12" fill="#888">2</text>
  <rect x="88" y="355" width="50" height="32" rx="8" fill="#0f3460"/><text x="113" y="376" text-anchor="middle" font-size="12" fill="#fff" font-weight="bold">3</text>
  <rect x="146" y="355" width="50" height="32" rx="8" fill="none" stroke="#3a3a5e" stroke-width="1"/><text x="171" y="376" text-anchor="middle" font-size="12" fill="#888">4</text>
  <rect x="204" y="355" width="50" height="32" rx="8" fill="none" stroke="#3a3a5e" stroke-width="1"/><text x="229" y="376" text-anchor="middle" font-size="12" fill="#888">5</text>
  <rect x="262" y="355" width="50" height="32" rx="8" fill="none" stroke="#3a3a5e" stroke-width="1"/><text x="287" y="376" text-anchor="middle" font-size="12" fill="#888">6</text>
  
  <text x="30" y="420" font-size="14" fill="#aaa">位置：</text>
  <rect x="30" y="435" width="45" height="32" rx="8" fill="none" stroke="#3a3a5e" stroke-width="1"/><text x="52" y="456" text-anchor="middle" font-size="11" fill="#888">BTN</text>
  <rect x="83" y="435" width="45" height="32" rx="8" fill="none" stroke="#3a3a5e" stroke-width="1"/><text x="105" y="456" text-anchor="middle" font-size="11" fill="#888">SB</text>
  <rect x="136" y="435" width="45" height="32" rx="8" fill="#0f3460"/><text x="158" y="456" text-anchor="middle" font-size="11" fill="#fff" font-weight="bold">BB</text>
  <rect x="189" y="435" width="45" height="32" rx="8" fill="none" stroke="#3a3a5e" stroke-width="1"/><text x="211" y="456" text-anchor="middle" font-size="11" fill="#888">UTG</text>
  <rect x="242" y="435" width="45" height="32" rx="8" fill="none" stroke="#3a3a5e" stroke-width="1"/><text x="264" y="456" text-anchor="middle" font-size="11" fill="#888">MP</text>
  <rect x="295" y="435" width="45" height="32" rx="8" fill="none" stroke="#3a3a5e" stroke-width="1"/><text x="317" y="456" text-anchor="middle" font-size="11" fill="#888">CO</text>
  
  <rect x="250" y="530" width="140" height="44" rx="10" fill="#16c79a"/>
  <text x="320" y="558" text-anchor="middle" font-size="14" fill="#fff" font-weight="bold">下一步 →</text>
  
  <text x="210" y="590" text-anchor="middle" font-size="11" fill="#555">Page 2/6 · 手牌输入</text>
</svg>
